<?xml version="1.0" standalone="no"?>
<!DOCTYPE svg PUBLIC "-//W3C//DTD SVG 20010904//EN"
 "http://www.w3.org/TR/2001/REC-SVG-20010904/DTD/svg10.dtd">
<svg version="1.0" xmlns="http://www.w3.org/2000/svg"
 width="371.000000pt" height="371.000000pt" viewBox="0 0 371.000000 371.000000"
 preserveAspectRatio="xMidYMid meet">
<metadata>
Created by potrace 1.14, written by Peter Selinger 2001-2017
</metadata>
<g transform="translate(0.000000,371.000000) scale(0.100000,-0.100000)"
fill="#000000" stroke="none">
<path d="M1613 3666 c1 -10 -4 -21 -12 -24 -8 -3 -11 0 -7 6 3 6 -1 9 -11 7
-10 -2 -22 -4 -26 -4 -5 -1 -5 -6 -1 -12 4 -8 0 -8 -15 0 -17 10 -21 9 -21 -4
0 -15 -1 -15 -16 -1 -19 19 -31 21 -15 3 8 -10 7 -14 -4 -14 -8 0 -15 4 -15 9
0 5 -5 6 -10 3 -8 -5 -7 -12 2 -23 11 -13 9 -13 -13 1 -14 10 -29 14 -33 10
-4 -5 -18 -8 -29 -8 -12 0 -21 -6 -19 -12 1 -7 -2 -13 -6 -13 -4 0 -14 6 -21
13 -11 10 -11 8 -1 -13 12 -23 12 -24 -3 -11 -16 12 -22 8 -18 -12 1 -5 -3 -6
-9 -2 -6 3 -7 12 -3 18 3 7 -4 3 -17 -8 -15 -13 -21 -15 -16 -5 4 8 0 6 -8 -4
-15 -18 -21 -15 -16 9 1 5 -8 1 -19 -10 -16 -14 -18 -20 -9 -27 19 -12 0 -10
-24 3 -16 9 -19 8 -13 -2 6 -9 3 -10 -10 -5 -15 5 -16 4 -5 -9 11 -13 10 -14
-4 -9 -20 8 -68 -15 -60 -27 3 -5 -2 -6 -10 -3 -9 3 -13 11 -9 17 3 6 1 7 -6
3 -9 -6 -9 -11 0 -22 10 -12 9 -13 -6 -8 -14 6 -16 4 -10 -7 7 -12 6 -12 -7
-1 -13 10 -18 10 -24 1 -5 -8 -3 -9 6 -4 9 5 11 4 6 -4 -6 -9 -11 -9 -21 -1
-11 9 -13 8 -10 -8 2 -12 -4 -27 -13 -34 -15 -12 -16 -11 -3 5 12 15 11 17 -3
17 -9 0 -16 -5 -16 -11 0 -5 -4 -8 -9 -5 -5 3 -12 -1 -15 -10 -4 -10 -12 -14
-22 -10 -12 5 -15 2 -10 -9 3 -9 2 -13 -3 -10 -5 3 -13 0 -16 -6 -4 -5 -13 -8
-21 -5 -8 3 -14 -1 -14 -10 0 -15 -39 -35 -52 -27 -5 2 -8 -1 -8 -7 0 -6 -4
-8 -10 -5 -6 4 -7 -1 -3 -11 5 -14 3 -16 -12 -11 -16 7 -16 5 -4 -9 12 -15 11
-16 -10 -9 -16 5 -21 4 -17 -4 4 -6 -4 -15 -19 -21 -14 -5 -24 -13 -21 -18 2
-4 -3 -16 -11 -27 -15 -19 -15 -19 -8 5 5 19 4 22 -4 14 -7 -6 -13 -20 -14
-31 -1 -14 -6 -19 -16 -15 -9 3 -12 1 -7 -6 4 -8 2 -10 -7 -6 -9 3 -17 -3 -20
-17 -4 -14 -11 -20 -21 -16 -11 4 -13 1 -9 -10 5 -12 3 -14 -7 -8 -10 6 -12 4
-6 -10 6 -16 4 -16 -11 -4 -10 7 -15 10 -11 5 4 -5 -4 -18 -18 -29 -15 -11
-23 -25 -19 -34 4 -12 0 -14 -15 -10 -18 5 -19 3 -8 -11 11 -13 10 -15 -9 -10
-21 5 -22 4 -11 -15 10 -20 10 -21 -6 -8 -14 12 -16 12 -11 -1 4 -9 -1 -18 -9
-21 -9 -4 -16 -14 -16 -22 0 -9 -3 -14 -8 -11 -4 2 -16 -3 -27 -11 -16 -12
-16 -14 -3 -10 10 3 20 2 23 -4 4 -5 2 -8 -3 -7 -5 2 -18 -6 -28 -17 -11 -12
-14 -14 -9 -5 9 13 8 13 -8 1 -14 -11 -15 -16 -5 -29 11 -13 11 -14 -1 -7 -11
6 -13 4 -8 -7 3 -10 0 -15 -10 -14 -8 0 -23 -14 -33 -31 -9 -18 -21 -29 -25
-25 -4 4 -6 0 -5 -8 4 -27 0 -41 -10 -35 -5 3 -10 2 -10 -4 0 -5 6 -12 13 -14
9 -4 9 -6 -1 -6 -7 -1 -10 -5 -7 -11 4 -6 -1 -7 -11 -3 -11 4 -15 2 -11 -4 4
-6 0 -14 -9 -17 -13 -5 -14 -9 -4 -21 10 -13 9 -15 -11 -15 -13 0 -19 -4 -14
-8 18 -13 15 -31 -9 -50 -18 -13 -22 -22 -15 -35 8 -13 5 -15 -11 -12 -11 2
-23 -1 -26 -7 -4 -6 -2 -8 4 -4 6 3 13 2 17 -4 3 -5 1 -10 -6 -10 -7 0 -9 -3
-6 -7 4 -3 2 -12 -4 -19 -6 -8 -9 -21 -5 -29 3 -9 2 -13 -4 -10 -6 3 -10 1
-10 -5 0 -6 -5 -8 -12 -4 -7 4 -8 3 -4 -5 4 -6 11 -9 15 -7 3 3 7 -3 7 -13 0
-10 -6 -18 -13 -18 -7 0 -9 5 -6 11 3 6 0 5 -8 -3 -11 -10 -11 -15 -1 -18 6
-3 12 -9 12 -14 0 -6 -4 -7 -10 -4 -5 3 -10 -1 -10 -10 0 -10 -5 -13 -12 -9
-7 4 -8 3 -4 -5 4 -6 11 -9 16 -6 5 3 12 0 16 -6 4 -8 3 -9 -4 -5 -7 4 -12 2
-12 -4 0 -6 -4 -8 -10 -5 -5 3 -10 1 -10 -4 0 -6 5 -11 11 -11 6 0 4 -7 -5
-15 -8 -9 -12 -23 -9 -32 4 -11 3 -14 -5 -9 -8 5 -10 2 -6 -9 5 -12 10 -13 23
-4 9 6 4 0 -11 -14 -15 -14 -24 -28 -20 -31 9 -10 11 -37 2 -31 -5 3 -11 1
-15 -5 -3 -5 -2 -10 3 -10 6 0 13 -7 16 -16 6 -15 4 -15 -10 -3 -16 13 -16 12
-7 -6 12 -23 6 -48 -9 -39 -6 4 -8 3 -5 -3 10 -17 16 -64 7 -58 -5 3 -11 1
-15 -5 -3 -5 2 -10 12 -11 10 0 13 -3 6 -6 -7 -2 -13 -9 -13 -14 0 -6 5 -7 10
-4 6 3 10 1 10 -4 0 -6 -7 -11 -15 -11 -8 0 -15 -5 -15 -11 0 -5 4 -8 8 -5 4
2 9 -4 9 -15 1 -10 -4 -19 -10 -19 -7 0 -6 -4 3 -10 13 -9 13 -10 0 -10 -13 0
-13 -1 0 -10 13 -9 13 -10 0 -10 -13 0 -13 -2 -1 -9 8 -5 16 -17 17 -25 1 -9
-2 -14 -6 -11 -5 3 -11 1 -15 -5 -3 -5 -2 -10 4 -10 6 0 8 -7 5 -15 -4 -8 -11
-12 -17 -8 -6 3 -7 1 -3 -6 4 -6 11 -9 16 -6 4 3 11 -2 14 -11 3 -8 2 -13 -2
-10 -4 3 -14 -5 -22 -17 -12 -21 -12 -21 5 -7 17 14 18 13 12 -2 -3 -10 -1
-20 5 -24 7 -4 6 -9 -3 -15 -11 -7 -9 -9 6 -9 12 0 16 -3 9 -8 -18 -12 -23
-51 -8 -67 9 -8 10 -16 4 -20 -5 -3 -10 -12 -10 -18 0 -7 4 -6 10 3 9 13 10
13 10 -1 0 -8 -6 -21 -13 -28 -6 -8 -7 -11 -2 -9 6 3 16 0 23 -8 7 -8 8 -14 2
-14 -5 0 -10 -5 -10 -11 0 -5 6 -7 13 -3 9 6 9 4 -1 -8 -10 -13 -10 -18 -1
-24 8 -5 9 -3 4 6 -5 8 -4 11 2 7 5 -3 8 -22 7 -42 -2 -20 1 -33 5 -30 5 3 12
-2 15 -11 5 -12 2 -15 -11 -10 -10 3 -6 -3 10 -15 15 -11 25 -25 21 -30 -3 -5
-10 -7 -15 -3 -5 3 -7 10 -4 15 4 5 1 9 -5 9 -7 0 -10 -3 -8 -7 2 -5 14 -32
28 -60 13 -29 29 -53 34 -53 6 0 4 -5 -4 -10 -10 -6 -11 -10 -2 -10 6 0 12
-10 12 -21 0 -12 8 -28 18 -36 9 -8 12 -12 6 -9 -6 3 -11 -1 -11 -8 0 -8 6
-12 12 -9 7 2 15 -3 19 -12 3 -9 2 -13 -3 -10 -5 3 -13 1 -16 -5 -4 -6 -3 -10
2 -9 4 1 15 1 23 0 11 -1 11 -4 2 -13 -7 -7 -12 -17 -12 -22 0 -6 5 -4 10 4 7
11 10 11 10 2 0 -8 5 -10 13 -6 7 5 6 0 -3 -11 -9 -11 -10 -16 -2 -11 7 4 12
1 12 -9 0 -9 5 -13 11 -9 8 4 8 0 0 -15 -10 -17 -9 -20 4 -15 11 5 14 2 8 -12
-4 -11 -3 -15 4 -11 6 4 16 -7 23 -23 7 -17 18 -30 24 -30 6 0 4 -5 -4 -10
-12 -8 -11 -10 8 -10 12 0 22 -5 22 -11 0 -5 -5 -7 -11 -3 -8 4 -8 0 0 -15 7
-11 14 -21 17 -21 3 0 2 6 -2 13 -5 9 -4 9 5 1 7 -6 13 -20 14 -32 0 -11 5
-18 9 -16 4 3 8 0 8 -6 0 -6 4 -8 10 -5 5 3 10 -1 10 -10 0 -9 4 -13 10 -10 6
3 7 -1 4 -9 -4 -11 0 -16 11 -16 15 0 16 -2 4 -17 -10 -11 -10 -14 -1 -9 6 4
12 2 12 -3 0 -6 7 -11 16 -11 8 0 12 -4 9 -10 -3 -5 -2 -10 3 -10 5 0 15 -11
22 -25 7 -13 17 -22 21 -20 4 3 10 -4 14 -15 3 -11 13 -20 21 -20 8 0 12 -4 9
-10 -3 -5 1 -10 10 -10 10 0 13 -5 9 -12 -5 -8 -2 -9 10 -5 9 4 15 3 12 -2 -3
-4 2 -17 10 -27 9 -10 12 -12 8 -4 -4 8 13 -5 38 -30 24 -25 42 -49 40 -54 -3
-5 0 -6 6 -2 12 7 45 -21 38 -33 -3 -4 1 -8 9 -9 8 -1 22 -3 30 -4 9 -1 14 -7
11 -14 -7 -19 5 -25 22 -11 9 6 13 7 10 2 -4 -6 1 -19 9 -30 12 -15 14 -16 10
-3 -3 9 12 -1 34 -23 22 -22 44 -37 49 -34 5 3 11 1 15 -5 4 -6 11 -8 16 -5 5
4 9 1 9 -5 0 -6 4 -8 10 -5 5 3 10 -1 10 -11 0 -13 3 -14 14 -5 12 10 13 8 9
-8 -3 -13 -1 -21 6 -21 7 0 9 5 6 10 -3 6 1 10 10 10 10 0 13 -5 9 -12 -5 -7
-2 -9 9 -5 11 4 14 2 11 -7 -3 -7 2 -16 11 -20 9 -3 14 -2 11 2 -3 5 1 9 9 9
8 0 13 -5 12 -11 -1 -6 8 -11 21 -10 16 0 21 -4 17 -14 -5 -13 -3 -13 12 -1
15 12 16 12 10 -3 -4 -13 -2 -15 10 -11 11 5 14 3 8 -6 -6 -10 -3 -11 15 -1
12 7 20 8 16 2 -3 -5 1 -13 10 -16 10 -4 13 -2 9 7 -4 6 1 3 10 -8 9 -11 23
-19 32 -17 10 2 12 -1 7 -10 -6 -10 -4 -10 9 1 11 9 17 10 17 2 0 -6 3 -10 8
-10 18 3 33 -2 28 -9 -6 -10 45 -10 61 1 7 5 10 0 7 -15 -2 -13 -2 -17 2 -10
3 6 10 12 15 12 6 0 7 -6 3 -12 -5 -10 -4 -10 6 -1 10 9 20 9 47 -2 18 -8 33
-11 33 -7 0 4 5 0 10 -8 8 -13 13 -13 31 -2 11 8 18 9 14 3 -6 -11 7 -15 33
-12 8 1 21 -4 30 -11 14 -11 15 -10 8 7 -5 15 -4 17 5 8 6 -6 18 -9 25 -6 9 3
14 -2 14 -13 0 -15 2 -16 9 -5 5 8 17 16 25 17 9 1 14 -1 11 -6 -3 -4 2 -11
11 -14 8 -3 13 -2 10 3 -3 5 1 12 10 15 8 3 12 2 9 -4 -6 -9 38 -15 73 -11 6
1 12 -4 12 -11 0 -8 3 -9 8 -3 4 6 12 11 17 11 6 1 21 5 35 8 24 7 24 6 6 -8
-11 -9 -16 -16 -10 -16 5 0 20 9 34 20 31 24 47 26 29 3 -12 -16 -11 -16 15 1
28 18 29 18 22 0 -6 -15 -3 -15 17 5 24 22 26 22 36 4 6 -10 11 -13 11 -5 0 7
5 10 10 7 6 -3 10 -2 10 3 0 6 10 8 22 4 16 -4 19 -2 13 9 -7 11 -6 12 6 2 12
-10 18 -10 28 0 9 9 14 9 21 -3 8 -13 11 -13 22 -1 9 10 10 12 1 7 -9 -5 -11
-2 -7 9 5 12 10 13 17 6 14 -14 40 -14 32 -1 -3 6 -2 10 4 10 5 0 12 -6 14
-12 4 -8 8 -4 12 9 4 13 11 20 16 17 5 -3 7 -9 4 -14 -3 -5 0 -12 6 -16 8 -4
9 -3 5 4 -4 7 -1 12 9 12 10 0 13 5 9 13 -5 7 0 6 11 -3 11 -9 16 -10 11 -2
-5 8 1 12 19 12 15 0 24 4 20 10 -3 6 -2 10 4 10 5 0 12 -6 14 -12 3 -7 6 -4
6 6 1 20 1 20 16 0 11 -14 14 -15 9 -3 -3 10 0 20 7 25 8 5 10 3 4 -7 -8 -12
-6 -12 8 -1 9 8 22 10 28 6 7 -4 9 -3 5 4 -3 6 -2 13 4 17 5 3 10 0 10 -7 0
-8 8 -4 18 8 9 12 25 20 35 19 10 -2 21 3 24 11 3 8 9 14 15 14 5 0 6 -4 3
-10 -3 -6 1 -7 9 -4 9 3 14 10 11 14 -3 4 2 10 9 13 8 3 17 1 20 -6 2 -7 5 -4
5 6 1 11 5 15 13 11 7 -5 9 -2 6 8 -4 8 0 15 8 15 7 0 11 -5 8 -11 -3 -6 2 -2
10 8 9 11 16 17 16 13 0 -3 11 5 25 18 13 14 30 25 37 25 7 -1 1 -8 -14 -16
-16 -8 -28 -17 -28 -20 0 -2 15 3 33 13 17 9 36 16 40 15 5 -1 6 2 2 7 -10 17
30 50 48 39 13 -7 15 -5 11 7 -4 10 0 15 10 15 9 0 16 6 16 14 0 16 27 29 42
19 7 -3 8 -1 4 5 -4 7 -2 12 4 12 6 0 8 5 4 12 -5 9 -2 8 9 -1 15 -12 17 -12
12 2 -4 10 1 17 14 22 12 4 18 11 15 17 -5 8 -1 9 10 5 9 -4 15 -3 12 1 -3 5
4 14 14 22 10 8 16 18 13 24 -4 6 0 5 9 -2 13 -10 18 -10 24 -1 4 8 3 9 -4 5
-7 -4 -12 -2 -12 3 0 6 4 11 8 11 19 0 94 79 87 91 -5 8 -4 10 3 5 7 -4 12 -2
12 4 0 6 4 8 10 5 5 -3 12 5 16 19 4 17 11 23 22 19 10 -4 13 -2 8 5 -4 7 -2
20 4 29 10 16 11 16 5 -2 -5 -16 -4 -18 7 -7 7 7 13 18 13 25 0 7 9 11 20 9
11 -2 16 1 10 5 -15 12 -18 36 -4 27 9 -5 10 -2 5 11 -6 16 -4 16 11 4 11 -9
14 -10 9 -1 -4 7 -1 15 9 18 12 5 13 10 4 20 -8 10 -7 12 10 9 13 -2 18 1 15
10 -3 7 0 16 7 21 8 5 10 3 4 -6 -6 -9 -4 -11 5 -5 10 6 10 11 -4 20 -15 11
-15 13 -1 19 11 4 14 2 9 -7 -5 -8 -2 -7 9 2 13 11 15 17 6 28 -10 11 -8 12 6
7 13 -5 16 -4 11 4 -4 7 -3 12 3 12 6 0 7 7 4 17 -4 11 -3 14 5 9 11 -7 16 7
15 41 -1 7 3 10 8 7 5 -3 9 0 9 6 0 7 7 10 14 7 10 -4 13 -1 9 9 -3 8 1 14 8
14 11 0 11 3 -1 10 -12 7 -12 10 -1 10 7 0 11 6 8 14 -4 11 -1 13 10 9 10 -4
14 -2 9 5 -3 6 2 16 11 22 16 10 16 11 1 6 -10 -3 -20 0 -24 6 -5 7 -2 8 6 3
10 -6 12 -4 7 9 -4 9 -3 15 1 12 9 -6 22 3 40 26 10 12 10 18 1 24 -7 4 -9 3
-6 -3 4 -6 -1 -17 -11 -24 -15 -12 -16 -12 -5 2 7 9 11 18 8 21 -3 3 1 11 10
18 12 10 15 10 15 0 0 -8 3 -10 6 -7 4 4 1 13 -6 22 -10 12 -9 15 6 16 12 0
14 3 6 6 -10 4 -9 9 5 20 10 8 11 11 3 7 -12 -6 -13 -4 -2 7 15 16 16 33 0 23
-7 -4 -8 -3 -4 4 4 7 15 12 24 12 13 0 13 2 -4 16 -10 8 -14 13 -8 10 7 -3 17
1 23 8 10 11 8 17 -6 25 -17 10 -17 10 1 11 16 0 17 2 5 17 -8 9 -9 14 -3 10
7 -4 17 0 24 8 11 13 10 15 -6 9 -18 -5 -18 -5 0 10 20 16 20 16 0 17 -16 0
-16 2 4 10 19 7 23 29 6 29 -3 0 -2 -5 2 -12 4 -7 3 -8 -5 -4 -8 6 -9 12 -2
20 6 7 7 17 3 21 -4 5 -2 6 3 2 6 -3 17 3 24 15 7 11 8 17 2 14 -5 -4 -12 -2
-16 4 -3 5 -2 10 3 10 5 0 7 12 5 28 -3 18 -2 23 5 14 6 -9 9 -4 9 17 0 19 -4
28 -11 24 -6 -4 -4 2 4 12 8 10 10 16 3 12 -6 -4 -15 -2 -19 4 -5 8 -3 9 6 4
10 -6 12 -4 6 10 -6 16 -4 16 11 4 15 -12 15 -12 7 4 -13 24 -6 79 10 70 6 -3
3 2 -6 12 -16 17 -16 19 0 32 9 8 12 12 7 9 -6 -2 -17 4 -24 16 -11 18 -10 19
11 13 16 -4 19 -3 10 3 -8 5 -13 12 -13 16 3 20 0 26 -9 21 -6 -3 -7 1 -4 10
5 13 9 13 23 3 14 -12 15 -11 2 5 -8 10 -14 38 -14 62 0 25 -3 45 -7 45 -13 0
-20 29 -8 36 6 4 8 3 4 -4 -3 -6 -3 -13 2 -16 4 -2 8 6 8 19 0 13 -3 22 -7 19
-10 -6 -23 15 -24 38 -1 14 1 15 12 6 11 -8 12 -7 7 6 -3 9 -11 16 -18 17 -6
0 -2 4 9 9 17 7 17 9 3 9 -10 1 -18 6 -18 12 0 5 6 7 13 3 7 -5 6 0 -3 11 -8
10 -14 28 -12 39 2 17 1 18 -7 6 -6 -8 -11 -10 -11 -5 0 6 5 16 12 23 9 9 9
12 -1 12 -8 0 -11 7 -8 19 4 15 1 18 -12 14 -13 -5 -13 -3 3 15 18 21 18 21
-1 18 -16 -4 -19 0 -15 25 3 23 0 29 -14 30 -18 0 -18 1 1 9 11 5 14 9 7 9 -7
1 -10 6 -7 11 3 6 -2 10 -12 11 -16 0 -16 1 2 9 18 8 18 9 -5 9 -18 1 -21 4
-12 10 11 7 10 11 -2 24 -10 10 -12 18 -6 22 5 3 10 12 10 18 0 9 -2 9 -8 1
-5 -9 -11 -8 -20 2 -10 11 -10 14 0 14 6 0 4 6 -6 13 -11 8 -17 20 -14 28 3 8
-2 20 -11 27 -9 8 -10 11 -3 7 6 -3 12 -1 12 4 0 6 -8 11 -18 11 -14 0 -18 7
-16 32 2 31 2 32 -13 13 -15 -19 -15 -19 -8 4 5 18 4 22 -5 16 -8 -5 -11 -4
-6 3 3 6 -4 21 -16 33 -13 12 -16 18 -8 14 12 -7 13 -6 3 7 -7 8 -10 18 -6 22
4 4 -1 4 -12 0 -18 -7 -19 -6 -6 10 13 15 12 18 -8 23 -16 4 -21 11 -18 24 3
12 0 19 -9 19 -8 0 -11 -7 -8 -17 5 -15 4 -15 -4 -4 -7 10 -7 21 -1 32 7 15 5
17 -10 14 -15 -3 -18 0 -14 12 4 11 2 14 -5 9 -8 -5 -10 -1 -5 10 5 14 3 16
-11 11 -10 -4 -15 -3 -11 3 3 6 0 10 -7 10 -9 0 -9 3 2 10 13 9 13 10 0 11 -8
1 -18 1 -22 1 -3 -1 -9 5 -12 14 -4 10 -2 13 7 8 6 -4 2 3 -10 17 -12 13 -36
41 -53 62 -18 20 -39 37 -47 37 -8 0 -11 5 -8 10 3 6 1 10 -5 10 -6 0 -8 5 -4
13 5 7 2 7 -10 -2 -9 -8 -16 -10 -15 -5 4 21 -2 34 -15 34 -21 0 -48 30 -42
46 4 10 -2 14 -19 14 -15 0 -26 7 -30 20 -3 11 -9 19 -13 17 -4 -1 -8 3 -10 8
-2 6 -14 16 -28 23 -13 7 -24 18 -24 25 0 8 -4 6 -10 -3 -9 -13 -10 -13 -11 0
-1 8 -1 19 0 24 1 5 -6 3 -15 -5 -12 -9 -15 -9 -10 -1 4 6 2 13 -3 13 -6 1
-14 2 -19 3 -15 2 -62 44 -62 56 0 6 -4 8 -10 5 -5 -3 -10 -1 -10 6 0 10 -3
10 -12 1 -15 -15 -28 -15 -28 -1 0 5 5 7 10 4 6 -3 10 1 10 9 0 9 -7 13 -18
11 -10 -2 -25 1 -33 6 -12 8 -12 11 1 20 12 8 10 9 -9 4 -18 -6 -22 -4 -15 6
6 11 5 12 -7 2 -13 -10 -19 -10 -35 3 -18 14 -18 14 6 4 23 -10 24 -10 6 4
-15 12 -23 13 -40 4 -19 -10 -20 -10 -7 6 12 14 12 16 -4 9 -15 -5 -17 -3 -12
13 7 18 6 18 -7 2 -15 -21 -27 -23 -23 -5 1 6 -4 11 -10 10 -7 -2 -13 2 -13 8
0 5 -4 8 -9 5 -5 -3 -14 1 -21 9 -15 18 -44 20 -34 3 4 -7 -2 -4 -13 7 -11 11
-18 24 -15 29 3 5 0 6 -7 2 -6 -4 -9 -12 -6 -17 4 -5 1 -9 -4 -9 -6 0 -11 7
-11 16 0 8 -5 12 -11 8 -15 -9 -60 16 -52 29 3 6 1 7 -6 3 -9 -6 -9 -12 1 -24
11 -15 11 -15 -3 -5 -9 7 -19 10 -22 6 -4 -3 -15 1 -24 9 -10 9 -27 18 -38 20
-11 1 -23 8 -27 13 -5 6 -8 4 -8 -5 0 -13 -1 -13 -10 0 -8 13 -10 13 -10 1 0
-11 -4 -9 -14 4 -14 19 -15 19 -38 0 -12 -11 -17 -13 -10 -5 16 18 15 27 -3
27 -8 0 -12 -4 -9 -9 10 -15 -9 -8 -23 10 -8 9 -11 11 -7 3 4 -9 2 -12 -7 -9
-8 3 -22 1 -32 -4 -15 -8 -20 -5 -24 11 -3 11 -9 18 -14 15 -5 -3 -7 -9 -4
-14 8 -12 -39 1 -47 14 -5 7 -11 6 -20 -3 -11 -11 -11 -13 1 -6 10 6 12 4 7
-4 -6 -8 -12 -9 -20 -2 -7 6 -16 8 -19 4 -4 -3 -7 0 -7 8 0 11 -2 11 -10 -1
-8 -12 -10 -12 -10 -1 0 11 -3 11 -17 0 -15 -12 -16 -12 -8 1 8 13 7 13 -8 1
-10 -7 -17 -9 -17 -3 0 11 -18 11 -37 -1 -7 -5 -13 -4 -13 0 0 5 -10 9 -21 10
-21 2 -21 1 -3 -12 18 -13 18 -14 -4 -8 -12 3 -25 10 -29 16 -3 5 -14 0 -24
-14 -18 -23 -18 -23 -14 -2 4 25 -16 25 -44 1 -17 -15 -20 -14 -30 6 -9 18
-10 18 -8 2z m67 -6 c0 -5 -5 -10 -11 -10 -5 0 -7 5 -4 10 3 6 8 10 11 10 2 0
4 -4 4 -10z m-250 -44 c0 -2 -8 -10 -17 -17 -16 -13 -17 -12 -4 4 13 16 21 21
21 13z m-40 -16 c0 -5 -2 -10 -4 -10 -3 0 -8 5 -11 10 -3 6 -1 10 4 10 6 0 11
-4 11 -10z m-560 -285 c-7 -9 -15 -13 -19 -10 -3 3 1 10 9 15 21 14 24 12 10
-5z m-261 -228 c-2 -1 -13 -9 -24 -17 -19 -14 -19 -14 -6 3 7 9 18 17 24 17 6
0 8 -1 6 -3z m2612 -23 c13 -14 17 -23 9 -19 -13 5 -46 45 -37 45 2 0 14 -11
28 -26z m482 -1269 c-3 -9 -8 -14 -10 -11 -3 3 -2 9 2 15 9 16 15 13 8 -4z
m-3596 -170 c0 -8 -4 -12 -9 -9 -5 3 -6 10 -3 15 9 13 12 11 12 -6z m3088
-1005 c-3 -5 -12 -10 -18 -10 -7 0 -6 4 3 10 19 12 23 12 15 0z m-2265 -275
c14 -19 14 -19 -2 -6 -10 7 -18 18 -18 24 0 6 1 8 3 6 1 -2 9 -13 17 -24z m37
-20 c0 -8 -4 -12 -9 -9 -5 3 -6 10 -3 15 9 13 12 11 12 -6z"/>
<path d="M2043 3665 c0 -8 4 -12 9 -9 5 3 6 10 3 15 -9 13 -12 11 -12 -6z"/>
<path d="M2294 3618 c3 -15 26 -23 26 -8 0 6 -4 9 -9 6 -5 -4 -12 -1 -14 4 -3
6 -4 5 -3 -2z"/>
<path d="M2820 3375 c0 -2 6 -8 13 -14 10 -8 14 -7 14 2 0 8 -6 14 -14 14 -7
0 -13 -1 -13 -2z"/>
<path d="M3062 3184 c10 -10 20 -16 22 -13 3 3 -5 11 -17 18 -21 13 -21 12 -5
-5z"/>
<path d="M203 2613 c4 -3 1 -13 -6 -22 -11 -14 -10 -14 5 -2 16 12 16 31 1 31
-4 0 -3 -3 0 -7z"/>
<path d="M28 1843 c7 -3 16 -2 19 1 4 3 -2 6 -13 5 -11 0 -14 -3 -6 -6z"/>
<path d="M3446 1004 c-5 -14 -4 -15 9 -4 17 14 19 20 6 20 -5 0 -12 -7 -15
-16z"/>
</g>
</svg>
