<svg id="visual" viewBox="0 0 960 100" width="960" height="100" xmlns="http://www.w3.org/2000/svg" xmlns:xlink="http://www.w3.org/1999/xlink" version="1.1"><path d="M0 7L17.8 7C35.7 7 71.3 7 106.8 7.7C142.3 8.3 177.7 9.7 213.2 10C248.7 10.3 284.3 9.7 320 9.3C355.7 9 391.3 9 426.8 9.5C462.3 10 497.7 11 533.2 11C568.7 11 604.3 10 640 9.8C675.7 9.7 711.3 10.3 746.8 12C782.3 13.7 817.7 16.3 853.2 17.8C888.7 19.3 924.3 19.7 942.2 19.8L960 20L960 0L942.2 0C924.3 0 888.7 0 853.2 0C817.7 0 782.3 0 746.8 0C711.3 0 675.7 0 640 0C604.3 0 568.7 0 533.2 0C497.7 0 462.3 0 426.8 0C391.3 0 355.7 0 320 0C284.3 0 248.7 0 213.2 0C177.7 0 142.3 0 106.8 0C71.3 0 35.7 0 17.8 0L0 0Z" fill="#ffffff"></path><path d="M0 34L17.8 32.7C35.7 31.3 71.3 28.7 106.8 29C142.3 29.3 177.7 32.7 213.2 32C248.7 31.3 284.3 26.7 320 25C355.7 23.3 391.3 24.7 426.8 27C462.3 29.3 497.7 32.7 533.2 35.2C568.7 37.7 604.3 39.3 640 40.2C675.7 41 711.3 41 746.8 41.2C782.3 41.3 817.7 41.7 853.2 40.3C888.7 39 924.3 36 942.2 34.5L960 33L960 18L942.2 17.8C924.3 17.7 888.7 17.3 853.2 15.8C817.7 14.3 782.3 11.7 746.8 10C711.3 8.3 675.7 7.7 640 7.8C604.3 8 568.7 9 533.2 9C497.7 9 462.3 8 426.8 7.5C391.3 7 355.7 7 320 7.3C284.3 7.7 248.7 8.3 213.2 8C177.7 7.7 142.3 6.3 106.8 5.7C71.3 5 35.7 5 17.8 5L0 5Z" fill="#d0c6f4"></path><path d="M0 43L17.8 41.5C35.7 40 71.3 37 106.8 37C142.3 37 177.7 40 213.2 38.8C248.7 37.7 284.3 32.3 320 31.3C355.7 30.3 391.3 33.7 426.8 37C462.3 40.3 497.7 43.7 533.2 46C568.7 48.3 604.3 49.7 640 50.2C675.7 50.7 711.3 50.3 746.8 49.3C782.3 48.3 817.7 46.7 853.2 44.5C888.7 42.3 924.3 39.7 942.2 38.3L960 37L960 31L942.2 32.5C924.3 34 888.7 37 853.2 38.3C817.7 39.7 782.3 39.3 746.8 39.2C711.3 39 675.7 39 640 38.2C604.3 37.3 568.7 35.7 533.2 33.2C497.7 30.7 462.3 27.3 426.8 25C391.3 22.7 355.7 21.3 320 23C284.3 24.7 248.7 29.3 213.2 30C177.7 30.7 142.3 27.3 106.8 27C71.3 26.7 35.7 29.3 17.8 30.7L0 32Z" fill="#9d90e9"></path><path d="M0 53L17.8 51.7C35.7 50.3 71.3 47.7 106.8 48.2C142.3 48.7 177.7 52.3 213.2 51C248.7 49.7 284.3 43.3 320 41C355.7 38.7 391.3 40.3 426.8 43.7C462.3 47 497.7 52 533.2 55.2C568.7 58.3 604.3 59.7 640 59.2C675.7 58.7 711.3 56.3 746.8 54.8C782.3 53.3 817.7 52.7 853.2 51.2C888.7 49.7 924.3 47.3 942.2 46.2L960 45L960 35L942.2 36.3C924.3 37.7 888.7 40.3 853.2 42.5C817.7 44.7 782.3 46.3 746.8 47.3C711.3 48.3 675.7 48.7 640 48.2C604.3 47.7 568.7 46.3 533.2 44C497.7 41.7 462.3 38.3 426.8 35C391.3 31.7 355.7 28.3 320 29.3C284.3 30.3 248.7 35.7 213.2 36.8C177.7 38 142.3 35 106.8 35C71.3 35 35.7 38 17.8 39.5L0 41Z" fill="#625ddb"></path><path d="M0 61L17.8 59.7C35.7 58.3 71.3 55.7 106.8 55.8C142.3 56 177.7 59 213.2 57.3C248.7 55.7 284.3 49.3 320 46.7C355.7 44 391.3 45 426.8 48.7C462.3 52.3 497.7 58.7 533.2 61.8C568.7 65 604.3 65 640 64.2C675.7 63.3 711.3 61.7 746.8 60.8C782.3 60 817.7 60 853.2 58C888.7 56 924.3 52 942.2 50L960 48L960 43L942.2 44.2C924.3 45.3 888.7 47.7 853.2 49.2C817.7 50.7 782.3 51.3 746.8 52.8C711.3 54.3 675.7 56.7 640 57.2C604.3 57.7 568.7 56.3 533.2 53.2C497.7 50 462.3 45 426.8 41.7C391.3 38.3 355.7 36.7 320 39C284.3 41.3 248.7 47.7 213.2 49C177.7 50.3 142.3 46.7 106.8 46.2C71.3 45.7 35.7 48.3 17.8 49.7L0 51Z" fill="#2940d3"></path><path d="M0 64L17.8 63.7C35.7 63.3 71.3 62.7 106.8 63.7C142.3 64.7 177.7 67.3 213.2 65C248.7 62.7 284.3 55.3 320 53C355.7 50.7 391.3 53.3 426.8 57.3C462.3 61.3 497.7 66.7 533.2 68.8C568.7 71 604.3 70 640 69.5C675.7 69 711.3 69 746.8 69.3C782.3 69.7 817.7 70.3 853.2 69C888.7 67.7 924.3 64.3 942.2 62.7L960 61L960 46L942.2 48C924.3 50 888.7 54 853.2 56C817.7 58 782.3 58 746.8 58.8C711.3 59.7 675.7 61.3 640 62.2C604.3 63 568.7 63 533.2 59.8C497.7 56.7 462.3 50.3 426.8 46.7C391.3 43 355.7 42 320 44.7C284.3 47.3 248.7 53.7 213.2 55.3C177.7 57 142.3 54 106.8 53.8C71.3 53.7 35.7 56.3 17.8 57.7L0 59Z" fill="#2940d3"></path><path d="M0 72L17.8 71.7C35.7 71.3 71.3 70.7 106.8 71.5C142.3 72.3 177.7 74.7 213.2 71.5C248.7 68.3 284.3 59.7 320 57.7C355.7 55.7 391.3 60.3 426.8 64.8C462.3 69.3 497.7 73.7 533.2 75.2C568.7 76.7 604.3 75.3 640 75.3C675.7 75.3 711.3 76.7 746.8 77C782.3 77.3 817.7 76.7 853.2 75.3C888.7 74 924.3 72 942.2 71L960 70L960 59L942.2 60.7C924.3 62.3 888.7 65.7 853.2 67C817.7 68.3 782.3 67.7 746.8 67.3C711.3 67 675.7 67 640 67.5C604.3 68 568.7 69 533.2 66.8C497.7 64.7 462.3 59.3 426.8 55.3C391.3 51.3 355.7 48.7 320 51C284.3 53.3 248.7 60.7 213.2 63C177.7 65.3 142.3 62.7 106.8 61.7C71.3 60.7 35.7 61.3 17.8 61.7L0 62Z" fill="#625ddb"></path><path d="M0 79L17.8 78.8C35.7 78.7 71.3 78.3 106.8 79.2C142.3 80 177.7 82 213.2 78C248.7 74 284.3 64 320 61.3C355.7 58.7 391.3 63.3 426.8 68C462.3 72.7 497.7 77.3 533.2 79.5C568.7 81.7 604.3 81.3 640 81.2C675.7 81 711.3 81 746.8 81C782.3 81 817.7 81 853.2 79.8C888.7 78.7 924.3 76.3 942.2 75.2L960 74L960 68L942.2 69C924.3 70 888.7 72 853.2 73.3C817.7 74.7 782.3 75.3 746.8 75C711.3 74.7 675.7 73.3 640 73.3C604.3 73.3 568.7 74.7 533.2 73.2C497.7 71.7 462.3 67.3 426.8 62.8C391.3 58.3 355.7 53.7 320 55.7C284.3 57.7 248.7 66.3 213.2 69.5C177.7 72.7 142.3 70.3 106.8 69.5C71.3 68.7 35.7 69.3 17.8 69.7L0 70Z" fill="#9d90e9"></path><path d="M0 96L17.8 96.3C35.7 96.7 71.3 97.3 106.8 97.7C142.3 98 177.7 98 213.2 97.3C248.7 96.7 284.3 95.3 320 95.2C355.7 95 391.3 96 426.8 96.8C462.3 97.7 497.7 98.3 533.2 98.5C568.7 98.7 604.3 98.3 640 97.7C675.7 97 711.3 96 746.8 95.8C782.3 95.7 817.7 96.3 853.2 97C888.7 97.7 924.3 98.3 942.2 98.7L960 99L960 72L942.2 73.2C924.3 74.3 888.7 76.7 853.2 77.8C817.7 79 782.3 79 746.8 79C711.3 79 675.7 79 640 79.2C604.3 79.3 568.7 79.7 533.2 77.5C497.7 75.3 462.3 70.7 426.8 66C391.3 61.3 355.7 56.7 320 59.3C284.3 62 248.7 72 213.2 76C177.7 80 142.3 78 106.8 77.2C71.3 76.3 35.7 76.7 17.8 76.8L0 77Z" fill="#d0c6f4"></path><path d="M0 101L17.8 101C35.7 101 71.3 101 106.8 101C142.3 101 177.7 101 213.2 101C248.7 101 284.3 101 320 101C355.7 101 391.3 101 426.8 101C462.3 101 497.7 101 533.2 101C568.7 101 604.3 101 640 101C675.7 101 711.3 101 746.8 101C782.3 101 817.7 101 853.2 101C888.7 101 924.3 101 942.2 101L960 101L960 97L942.2 96.7C924.3 96.3 888.7 95.7 853.2 95C817.7 94.3 782.3 93.7 746.8 93.8C711.3 94 675.7 95 640 95.7C604.3 96.3 568.7 96.7 533.2 96.5C497.7 96.3 462.3 95.7 426.8 94.8C391.3 94 355.7 93 320 93.2C284.3 93.3 248.7 94.7 213.2 95.3C177.7 96 142.3 96 106.8 95.7C71.3 95.3 35.7 94.7 17.8 94.3L0 94Z" fill="#ffffff"></path></svg>