<svg id="visual" viewBox="0 0 960 100" width="960" height="100" xmlns="http://www.w3.org/2000/svg" xmlns:xlink="http://www.w3.org/1999/xlink" version="1.1"><path d="M0 13L17.8 12.3C35.7 11.7 71.3 10.3 106.8 10.8C142.3 11.3 177.7 13.7 213.2 14.3C248.7 15 284.3 14 320 13.3C355.7 12.7 391.3 12.3 426.8 11.8C462.3 11.3 497.7 10.7 533.2 9.7C568.7 8.7 604.3 7.3 640 7.7C675.7 8 711.3 10 746.8 10.3C782.3 10.7 817.7 9.3 853.2 9.7C888.7 10 924.3 12 942.2 13L960 14L960 0L942.2 0C924.3 0 888.7 0 853.2 0C817.7 0 782.3 0 746.8 0C711.3 0 675.7 0 640 0C604.3 0 568.7 0 533.2 0C497.7 0 462.3 0 426.8 0C391.3 0 355.7 0 320 0C284.3 0 248.7 0 213.2 0C177.7 0 142.3 0 106.8 0C71.3 0 35.7 0 17.8 0L0 0Z" fill="#ffffff"></path><path d="M0 21L17.8 20.3C35.7 19.7 71.3 18.3 106.8 18C142.3 17.7 177.7 18.3 213.2 18.5C248.7 18.7 284.3 18.3 320 18.2C355.7 18 391.3 18 426.8 17.2C462.3 16.3 497.7 14.7 533.2 14C568.7 13.3 604.3 13.7 640 15.2C675.7 16.7 711.3 19.3 746.8 19.3C782.3 19.3 817.7 16.7 853.2 15.8C888.7 15 924.3 16 942.2 16.5L960 17L960 12L942.2 11C924.3 10 888.7 8 853.2 7.7C817.7 7.3 782.3 8.7 746.8 8.3C711.3 8 675.7 6 640 5.7C604.3 5.3 568.7 6.7 533.2 7.7C497.7 8.7 462.3 9.3 426.8 9.8C391.3 10.3 355.7 10.7 320 11.3C284.3 12 248.7 13 213.2 12.3C177.7 11.7 142.3 9.3 106.8 8.8C71.3 8.3 35.7 9.7 17.8 10.3L0 11Z" fill="#ffd7c5"></path><path d="M0 29L17.8 28.3C35.7 27.7 71.3 26.3 106.8 26C142.3 25.7 177.7 26.3 213.2 26.2C248.7 26 284.3 25 320 24.2C355.7 23.3 391.3 22.7 426.8 22C462.3 21.3 497.7 20.7 533.2 20.5C568.7 20.3 604.3 20.7 640 21.7C675.7 22.7 711.3 24.3 746.8 23.8C782.3 23.3 817.7 20.7 853.2 19.8C888.7 19 924.3 20 942.2 20.5L960 21L960 15L942.2 14.5C924.3 14 888.7 13 853.2 13.8C817.7 14.7 782.3 17.3 746.8 17.3C711.3 17.3 675.7 14.7 640 13.2C604.3 11.7 568.7 11.3 533.2 12C497.7 12.7 462.3 14.3 426.8 15.2C391.3 16 355.7 16 320 16.2C284.3 16.3 248.7 16.7 213.2 16.5C177.7 16.3 142.3 15.7 106.8 16C71.3 16.3 35.7 17.7 17.8 18.3L0 19Z" fill="#ffaf8d"></path><path d="M0 32L17.8 31.8C35.7 31.7 71.3 31.3 106.8 31.3C142.3 31.3 177.7 31.7 213.2 31.5C248.7 31.3 284.3 30.7 320 29.7C355.7 28.7 391.3 27.3 426.8 26.8C462.3 26.3 497.7 26.7 533.2 26.3C568.7 26 604.3 25 640 25.5C675.7 26 711.3 28 746.8 27.7C782.3 27.3 817.7 24.7 853.2 24.2C888.7 23.7 924.3 25.3 942.2 26.2L960 27L960 19L942.2 18.5C924.3 18 888.7 17 853.2 17.8C817.7 18.7 782.3 21.3 746.8 21.8C711.3 22.3 675.7 20.7 640 19.7C604.3 18.7 568.7 18.3 533.2 18.5C497.7 18.7 462.3 19.3 426.8 20C391.3 20.7 355.7 21.3 320 22.2C284.3 23 248.7 24 213.2 24.2C177.7 24.3 142.3 23.7 106.8 24C71.3 24.3 35.7 25.7 17.8 26.3L0 27Z" fill="#ff8656"></path><path d="M0 39L17.8 38.2C35.7 37.3 71.3 35.7 106.8 35.2C142.3 34.7 177.7 35.3 213.2 35.3C248.7 35.3 284.3 34.7 320 33.7C355.7 32.7 391.3 31.3 426.8 30.7C462.3 30 497.7 30 533.2 29.7C568.7 29.3 604.3 28.7 640 29.3C675.7 30 711.3 32 746.8 32.2C782.3 32.3 817.7 30.7 853.2 29.8C888.7 29 924.3 29 942.2 29L960 29L960 25L942.2 24.2C924.3 23.3 888.7 21.7 853.2 22.2C817.7 22.7 782.3 25.3 746.8 25.7C711.3 26 675.7 24 640 23.5C604.3 23 568.7 24 533.2 24.3C497.7 24.7 462.3 24.3 426.8 24.8C391.3 25.3 355.7 26.7 320 27.7C284.3 28.7 248.7 29.3 213.2 29.5C177.7 29.7 142.3 29.3 106.8 29.3C71.3 29.3 35.7 29.7 17.8 29.8L0 30Z" fill="#ff6b35"></path><path d="M0 47L17.8 45.7C35.7 44.3 71.3 41.7 106.8 40.7C142.3 39.7 177.7 40.3 213.2 41.2C248.7 42 284.3 43 320 42.8C355.7 42.7 391.3 41.3 426.8 40.5C462.3 39.7 497.7 39.3 533.2 39C568.7 38.7 604.3 38.3 640 38.3C675.7 38.3 711.3 38.7 746.8 38.5C782.3 38.3 817.7 37.7 853.2 36.7C888.7 35.7 924.3 34.3 942.2 33.7L960 33L960 27L942.2 27C924.3 27 888.7 27 853.2 27.8C817.7 28.7 782.3 30.3 746.8 30.2C711.3 30 675.7 28 640 27.3C604.3 26.7 568.7 27.3 533.2 27.7C497.7 28 462.3 28 426.8 28.7C391.3 29.3 355.7 30.7 320 31.7C284.3 32.7 248.7 33.3 213.2 33.3C177.7 33.3 142.3 32.7 106.8 33.2C71.3 33.7 35.7 35.3 17.8 36.2L0 37Z" fill="#ff6b35"></path><path d="M0 64L17.8 63.5C35.7 63 71.3 62 106.8 60.8C142.3 59.7 177.7 58.3 213.2 59.2C248.7 60 284.3 63 320 65.2C355.7 67.3 391.3 68.7 426.8 67.7C462.3 66.7 497.7 63.3 533.2 60.5C568.7 57.7 604.3 55.3 640 55.5C675.7 55.7 711.3 58.3 746.8 59.5C782.3 60.7 817.7 60.3 853.2 57.7C888.7 55 924.3 50 942.2 47.5L960 45L960 31L942.2 31.7C924.3 32.3 888.7 33.7 853.2 34.7C817.7 35.7 782.3 36.3 746.8 36.5C711.3 36.7 675.7 36.3 640 36.3C604.3 36.3 568.7 36.7 533.2 37C497.7 37.3 462.3 37.7 426.8 38.5C391.3 39.3 355.7 40.7 320 40.8C284.3 41 248.7 40 213.2 39.2C177.7 38.3 142.3 37.7 106.8 38.7C71.3 39.7 35.7 42.3 17.8 43.7L0 45Z" fill="#ff8656"></path><path d="M0 75L17.8 73.8C35.7 72.7 71.3 70.3 106.8 68.7C142.3 67 177.7 66 213.2 66.7C248.7 67.3 284.3 69.7 320 72.2C355.7 74.7 391.3 77.3 426.8 76C462.3 74.7 497.7 69.3 533.2 66C568.7 62.7 604.3 61.3 640 61.7C675.7 62 711.3 64 746.8 65.7C782.3 67.3 817.7 68.7 853.2 67.5C888.7 66.3 924.3 62.7 942.2 60.8L960 59L960 43L942.2 45.5C924.3 48 888.7 53 853.2 55.7C817.7 58.3 782.3 58.7 746.8 57.5C711.3 56.3 675.7 53.7 640 53.5C604.3 53.3 568.7 55.7 533.2 58.5C497.7 61.3 462.3 64.7 426.8 65.7C391.3 66.7 355.7 65.3 320 63.2C284.3 61 248.7 58 213.2 57.2C177.7 56.3 142.3 57.7 106.8 58.8C71.3 60 35.7 61 17.8 61.5L0 62Z" fill="#ffaf8d"></path><path d="M0 94L17.8 93.7C35.7 93.3 71.3 92.7 106.8 91.5C142.3 90.3 177.7 88.7 213.2 87.2C248.7 85.7 284.3 84.3 320 85.7C355.7 87 391.3 91 426.8 90.8C462.3 90.7 497.7 86.3 533.2 84.8C568.7 83.3 604.3 84.7 640 84.5C675.7 84.3 711.3 82.7 746.8 83.8C782.3 85 817.7 89 853.2 89.7C888.7 90.3 924.3 87.7 942.2 86.3L960 85L960 57L942.2 58.8C924.3 60.7 888.7 64.3 853.2 65.5C817.7 66.7 782.3 65.3 746.8 63.7C711.3 62 675.7 60 640 59.7C604.3 59.3 568.7 60.7 533.2 64C497.7 67.3 462.3 72.7 426.8 74C391.3 75.3 355.7 72.7 320 70.2C284.3 67.7 248.7 65.3 213.2 64.7C177.7 64 142.3 65 106.8 66.7C71.3 68.3 35.7 70.7 17.8 71.8L0 73Z" fill="#ffd7c5"></path><path d="M0 101L17.8 101C35.7 101 71.3 101 106.8 101C142.3 101 177.7 101 213.2 101C248.7 101 284.3 101 320 101C355.7 101 391.3 101 426.8 101C462.3 101 497.7 101 533.2 101C568.7 101 604.3 101 640 101C675.7 101 711.3 101 746.8 101C782.3 101 817.7 101 853.2 101C888.7 101 924.3 101 942.2 101L960 101L960 83L942.2 84.3C924.3 85.7 888.7 88.3 853.2 87.7C817.7 87 782.3 83 746.8 81.8C711.3 80.7 675.7 82.3 640 82.5C604.3 82.7 568.7 81.3 533.2 82.8C497.7 84.3 462.3 88.7 426.8 88.8C391.3 89 355.7 85 320 83.7C284.3 82.3 248.7 83.7 213.2 85.2C177.7 86.7 142.3 88.3 106.8 89.5C71.3 90.7 35.7 91.3 17.8 91.7L0 92Z" fill="#ffffff"></path></svg>