<svg id="visual" viewBox="0 0 960 100" width="960" height="100" xmlns="http://www.w3.org/2000/svg" xmlns:xlink="http://www.w3.org/1999/xlink" version="1.1"><path d="M0 7L17.8 6.7C35.7 6.3 71.3 5.7 106.8 5.2C142.3 4.7 177.7 4.3 213.2 4.5C248.7 4.7 284.3 5.3 320 5.7C355.7 6 391.3 6 426.8 5.7C462.3 5.3 497.7 4.7 533.2 5.2C568.7 5.7 604.3 7.3 640 7.7C675.7 8 711.3 7 746.8 6.7C782.3 6.3 817.7 6.7 853.2 6.5C888.7 6.3 924.3 5.7 942.2 5.3L960 5L960 0L942.2 0C924.3 0 888.7 0 853.2 0C817.7 0 782.3 0 746.8 0C711.3 0 675.7 0 640 0C604.3 0 568.7 0 533.2 0C497.7 0 462.3 0 426.8 0C391.3 0 355.7 0 320 0C284.3 0 248.7 0 213.2 0C177.7 0 142.3 0 106.8 0C71.3 0 35.7 0 17.8 0L0 0Z" fill="#ffffff"></path><path d="M0 21L17.8 21.5C35.7 22 71.3 23 106.8 23C142.3 23 177.7 22 213.2 20C248.7 18 284.3 15 320 14.5C355.7 14 391.3 16 426.8 17.3C462.3 18.7 497.7 19.3 533.2 19.3C568.7 19.3 604.3 18.7 640 17.7C675.7 16.7 711.3 15.3 746.8 16C782.3 16.7 817.7 19.3 853.2 19.8C888.7 20.3 924.3 18.7 942.2 17.8L960 17L960 3L942.2 3.3C924.3 3.7 888.7 4.3 853.2 4.5C817.7 4.7 782.3 4.3 746.8 4.7C711.3 5 675.7 6 640 5.7C604.3 5.3 568.7 3.7 533.2 3.2C497.7 2.7 462.3 3.3 426.8 3.7C391.3 4 355.7 4 320 3.7C284.3 3.3 248.7 2.7 213.2 2.5C177.7 2.3 142.3 2.7 106.8 3.2C71.3 3.7 35.7 4.3 17.8 4.7L0 5Z" fill="#d0c6f4"></path><path d="M0 30L17.8 29.5C35.7 29 71.3 28 106.8 27.8C142.3 27.7 177.7 28.3 213.2 27.2C248.7 26 284.3 23 320 22.7C355.7 22.3 391.3 24.7 426.8 26C462.3 27.3 497.7 27.7 533.2 26.8C568.7 26 604.3 24 640 22.8C675.7 21.7 711.3 21.3 746.8 21.8C782.3 22.3 817.7 23.7 853.2 23.8C888.7 24 924.3 23 942.2 22.5L960 22L960 15L942.2 15.8C924.3 16.7 888.7 18.3 853.2 17.8C817.7 17.3 782.3 14.7 746.8 14C711.3 13.3 675.7 14.7 640 15.7C604.3 16.7 568.7 17.3 533.2 17.3C497.7 17.3 462.3 16.7 426.8 15.3C391.3 14 355.7 12 320 12.5C284.3 13 248.7 16 213.2 18C177.7 20 142.3 21 106.8 21C71.3 21 35.7 20 17.8 19.5L0 19Z" fill="#9d90e9"></path><path d="M0 62L17.8 60.5C35.7 59 71.3 56 106.8 52.5C142.3 49 177.7 45 213.2 44.2C248.7 43.3 284.3 45.7 320 46.7C355.7 47.7 391.3 47.3 426.8 47.5C462.3 47.7 497.7 48.3 533.2 48.2C568.7 48 604.3 47 640 45.7C675.7 44.3 711.3 42.7 746.8 42.8C782.3 43 817.7 45 853.2 47C888.7 49 924.3 51 942.2 52L960 53L960 20L942.2 20.5C924.3 21 888.7 22 853.2 21.8C817.7 21.7 782.3 20.3 746.8 19.8C711.3 19.3 675.7 19.7 640 20.8C604.3 22 568.7 24 533.2 24.8C497.7 25.7 462.3 25.3 426.8 24C391.3 22.7 355.7 20.3 320 20.7C284.3 21 248.7 24 213.2 25.2C177.7 26.3 142.3 25.7 106.8 25.8C71.3 26 35.7 27 17.8 27.5L0 28Z" fill="#625ddb"></path><path d="M0 70L17.8 69.3C35.7 68.7 71.3 67.3 106.8 63.3C142.3 59.3 177.7 52.7 213.2 50.8C248.7 49 284.3 52 320 54.5C355.7 57 391.3 59 426.8 59.8C462.3 60.7 497.7 60.3 533.2 60.3C568.7 60.3 604.3 60.7 640 58.7C675.7 56.7 711.3 52.3 746.8 52.7C782.3 53 817.7 58 853.2 60C888.7 62 924.3 61 942.2 60.5L960 60L960 51L942.2 50C924.3 49 888.7 47 853.2 45C817.7 43 782.3 41 746.8 40.8C711.3 40.7 675.7 42.3 640 43.7C604.3 45 568.7 46 533.2 46.2C497.7 46.3 462.3 45.7 426.8 45.5C391.3 45.3 355.7 45.7 320 44.7C284.3 43.7 248.7 41.3 213.2 42.2C177.7 43 142.3 47 106.8 50.5C71.3 54 35.7 57 17.8 58.5L0 60Z" fill="#2940d3"></path><path d="M0 83L17.8 82.7C35.7 82.3 71.3 81.7 106.8 80.8C142.3 80 177.7 79 213.2 77.5C248.7 76 284.3 74 320 73.5C355.7 73 391.3 74 426.8 74.3C462.3 74.7 497.7 74.3 533.2 75.2C568.7 76 604.3 78 640 78.2C675.7 78.3 711.3 76.7 746.8 77C782.3 77.3 817.7 79.7 853.2 79.3C888.7 79 924.3 76 942.2 74.5L960 73L960 58L942.2 58.5C924.3 59 888.7 60 853.2 58C817.7 56 782.3 51 746.8 50.7C711.3 50.3 675.7 54.7 640 56.7C604.3 58.7 568.7 58.3 533.2 58.3C497.7 58.3 462.3 58.7 426.8 57.8C391.3 57 355.7 55 320 52.5C284.3 50 248.7 47 213.2 48.8C177.7 50.7 142.3 57.3 106.8 61.3C71.3 65.3 35.7 66.7 17.8 67.3L0 68Z" fill="#2940d3"></path><path d="M0 87L17.8 86.3C35.7 85.7 71.3 84.3 106.8 84.2C142.3 84 177.7 85 213.2 83.8C248.7 82.7 284.3 79.3 320 78.5C355.7 77.7 391.3 79.3 426.8 79.3C462.3 79.3 497.7 77.7 533.2 78C568.7 78.3 604.3 80.7 640 81.7C675.7 82.7 711.3 82.3 746.8 82.5C782.3 82.7 817.7 83.3 853.2 83C888.7 82.7 924.3 81.3 942.2 80.7L960 80L960 71L942.2 72.5C924.3 74 888.7 77 853.2 77.3C817.7 77.7 782.3 75.3 746.8 75C711.3 74.7 675.7 76.3 640 76.2C604.3 76 568.7 74 533.2 73.2C497.7 72.3 462.3 72.7 426.8 72.3C391.3 72 355.7 71 320 71.5C284.3 72 248.7 74 213.2 75.5C177.7 77 142.3 78 106.8 78.8C71.3 79.7 35.7 80.3 17.8 80.7L0 81Z" fill="#625ddb"></path><path d="M0 89L17.8 89C35.7 89 71.3 89 106.8 89.2C142.3 89.3 177.7 89.7 213.2 88C248.7 86.3 284.3 82.7 320 81.7C355.7 80.7 391.3 82.3 426.8 82.8C462.3 83.3 497.7 82.7 533.2 82.8C568.7 83 604.3 84 640 84.7C675.7 85.3 711.3 85.7 746.8 86.5C782.3 87.3 817.7 88.7 853.2 88.5C888.7 88.3 924.3 86.7 942.2 85.8L960 85L960 78L942.2 78.7C924.3 79.3 888.7 80.7 853.2 81C817.7 81.3 782.3 80.7 746.8 80.5C711.3 80.3 675.7 80.7 640 79.7C604.3 78.7 568.7 76.3 533.2 76C497.7 75.7 462.3 77.3 426.8 77.3C391.3 77.3 355.7 75.7 320 76.5C284.3 77.3 248.7 80.7 213.2 81.8C177.7 83 142.3 82 106.8 82.2C71.3 82.3 35.7 83.7 17.8 84.3L0 85Z" fill="#9d90e9"></path><path d="M0 98L17.8 97.8C35.7 97.7 71.3 97.3 106.8 97.3C142.3 97.3 177.7 97.7 213.2 96.7C248.7 95.7 284.3 93.3 320 92.3C355.7 91.3 391.3 91.7 426.8 91.7C462.3 91.7 497.7 91.3 533.2 92.2C568.7 93 604.3 95 640 95.7C675.7 96.3 711.3 95.7 746.8 95.2C782.3 94.7 817.7 94.3 853.2 94C888.7 93.7 924.3 93.3 942.2 93.2L960 93L960 83L942.2 83.8C924.3 84.7 888.7 86.3 853.2 86.5C817.7 86.7 782.3 85.3 746.8 84.5C711.3 83.7 675.7 83.3 640 82.7C604.3 82 568.7 81 533.2 80.8C497.7 80.7 462.3 81.3 426.8 80.8C391.3 80.3 355.7 78.7 320 79.7C284.3 80.7 248.7 84.3 213.2 86C177.7 87.7 142.3 87.3 106.8 87.2C71.3 87 35.7 87 17.8 87L0 87Z" fill="#d0c6f4"></path><path d="M0 101L17.8 101C35.7 101 71.3 101 106.8 101C142.3 101 177.7 101 213.2 101C248.7 101 284.3 101 320 101C355.7 101 391.3 101 426.8 101C462.3 101 497.7 101 533.2 101C568.7 101 604.3 101 640 101C675.7 101 711.3 101 746.8 101C782.3 101 817.7 101 853.2 101C888.7 101 924.3 101 942.2 101L960 101L960 91L942.2 91.2C924.3 91.3 888.7 91.7 853.2 92C817.7 92.3 782.3 92.7 746.8 93.2C711.3 93.7 675.7 94.3 640 93.7C604.3 93 568.7 91 533.2 90.2C497.7 89.3 462.3 89.7 426.8 89.7C391.3 89.7 355.7 89.3 320 90.3C284.3 91.3 248.7 93.7 213.2 94.7C177.7 95.7 142.3 95.3 106.8 95.3C71.3 95.3 35.7 95.7 17.8 95.8L0 96Z" fill="#ffffff"></path></svg>