<svg id="visual" viewBox="0 0 960 300" width="960" height="300" xmlns="http://www.w3.org/2000/svg" xmlns:xlink="http://www.w3.org/1999/xlink" version="1.1"><rect x="0" y="0" width="960" height="300" fill="#ffffff"></rect><path d="M0 120L22.8 113.5C45.7 107 91.3 94 137 87C182.7 80 228.3 79 274 82.8C319.7 86.7 365.3 95.3 411.2 96.3C457 97.3 503 90.7 548.8 89.3C594.7 88 640.3 92 686 95.3C731.7 98.7 777.3 101.3 823 103.5C868.7 105.7 914.3 107.3 937.2 108.2L960 109L960 0L937.2 0C914.3 0 868.7 0 823 0C777.3 0 731.7 0 686 0C640.3 0 594.7 0 548.8 0C503 0 457 0 411.2 0C365.3 0 319.7 0 274 0C228.3 0 182.7 0 137 0C91.3 0 45.7 0 22.8 0L0 0Z" fill="#6e79e6"></path><path d="M0 63L22.8 67.3C45.7 71.7 91.3 80.3 137 83.5C182.7 86.7 228.3 84.3 274 80.8C319.7 77.3 365.3 72.7 411.2 69.8C457 67 503 66 548.8 69C594.7 72 640.3 79 686 82C731.7 85 777.3 84 823 81.7C868.7 79.3 914.3 75.7 937.2 73.8L960 72L960 0L937.2 0C914.3 0 868.7 0 823 0C777.3 0 731.7 0 686 0C640.3 0 594.7 0 548.8 0C503 0 457 0 411.2 0C365.3 0 319.7 0 274 0C228.3 0 182.7 0 137 0C91.3 0 45.7 0 22.8 0L0 0Z" fill="#4f5ddd"></path><path d="M0 79L22.8 77.8C45.7 76.7 91.3 74.3 137 73.3C182.7 72.3 228.3 72.7 274 72.5C319.7 72.3 365.3 71.7 411.2 67.8C457 64 503 57 548.8 58.5C594.7 60 640.3 70 686 71.5C731.7 73 777.3 66 823 62.7C868.7 59.3 914.3 59.7 937.2 59.8L960 60L960 0L937.2 0C914.3 0 868.7 0 823 0C777.3 0 731.7 0 686 0C640.3 0 594.7 0 548.8 0C503 0 457 0 411.2 0C365.3 0 319.7 0 274 0C228.3 0 182.7 0 137 0C91.3 0 45.7 0 22.8 0L0 0Z" fill="#2940d3"></path><path d="M0 41L22.8 38.8C45.7 36.7 91.3 32.3 137 32C182.7 31.7 228.3 35.3 274 39C319.7 42.7 365.3 46.3 411.2 46.2C457 46 503 42 548.8 38.8C594.7 35.7 640.3 33.3 686 31.5C731.7 29.7 777.3 28.3 823 29.7C868.7 31 914.3 35 937.2 37L960 39L960 0L937.2 0C914.3 0 868.7 0 823 0C777.3 0 731.7 0 686 0C640.3 0 594.7 0 548.8 0C503 0 457 0 411.2 0C365.3 0 319.7 0 274 0C228.3 0 182.7 0 137 0C91.3 0 45.7 0 22.8 0L0 0Z" fill="#1f38b7"></path><path d="M0 13L22.8 16.2C45.7 19.3 91.3 25.7 137 29.5C182.7 33.3 228.3 34.7 274 33.5C319.7 32.3 365.3 28.7 411.2 26.3C457 24 503 23 548.8 24.7C594.7 26.3 640.3 30.7 686 30.2C731.7 29.7 777.3 24.3 823 22.8C868.7 21.3 914.3 23.7 937.2 24.8L960 26L960 0L937.2 0C914.3 0 868.7 0 823 0C777.3 0 731.7 0 686 0C640.3 0 594.7 0 548.8 0C503 0 457 0 411.2 0C365.3 0 319.7 0 274 0C228.3 0 182.7 0 137 0C91.3 0 45.7 0 22.8 0L0 0Z" fill="#17309b"></path></svg>