<svg id="visual" viewBox="0 0 960 300" width="960" height="300" xmlns="http://www.w3.org/2000/svg" xmlns:xlink="http://www.w3.org/1999/xlink" version="1.1"><rect x="0" y="0" width="960" height="300" fill="#ffffff"></rect><path d="M0 189L22.8 194.2C45.7 199.3 91.3 209.7 137 211.8C182.7 214 228.3 208 274 205.2C319.7 202.3 365.3 202.7 411.2 202C457 201.3 503 199.7 548.8 196.5C594.7 193.3 640.3 188.7 686 185C731.7 181.3 777.3 178.7 823 177.3C868.7 176 914.3 176 937.2 176L960 176L960 301L937.2 301C914.3 301 868.7 301 823 301C777.3 301 731.7 301 686 301C640.3 301 594.7 301 548.8 301C503 301 457 301 411.2 301C365.3 301 319.7 301 274 301C228.3 301 182.7 301 137 301C91.3 301 45.7 301 22.8 301L0 301Z" fill="#6e79e6"></path><path d="M0 216L22.8 219.3C45.7 222.7 91.3 229.3 137 229C182.7 228.7 228.3 221.3 274 214.8C319.7 208.3 365.3 202.7 411.2 203.3C457 204 503 211 548.8 214.5C594.7 218 640.3 218 686 217.8C731.7 217.7 777.3 217.3 823 215.7C868.7 214 914.3 211 937.2 209.5L960 208L960 301L937.2 301C914.3 301 868.7 301 823 301C777.3 301 731.7 301 686 301C640.3 301 594.7 301 548.8 301C503 301 457 301 411.2 301C365.3 301 319.7 301 274 301C228.3 301 182.7 301 137 301C91.3 301 45.7 301 22.8 301L0 301Z" fill="#4f5ddd"></path><path d="M0 235L22.8 232.8C45.7 230.7 91.3 226.3 137 229.2C182.7 232 228.3 242 274 241.8C319.7 241.7 365.3 231.3 411.2 226.7C457 222 503 223 548.8 228.2C594.7 233.3 640.3 242.7 686 247.7C731.7 252.7 777.3 253.3 823 253C868.7 252.7 914.3 251.3 937.2 250.7L960 250L960 301L937.2 301C914.3 301 868.7 301 823 301C777.3 301 731.7 301 686 301C640.3 301 594.7 301 548.8 301C503 301 457 301 411.2 301C365.3 301 319.7 301 274 301C228.3 301 182.7 301 137 301C91.3 301 45.7 301 22.8 301L0 301Z" fill="#2940d3"></path><path d="M0 248L22.8 247.5C45.7 247 91.3 246 137 244.8C182.7 243.7 228.3 242.3 274 245C319.7 247.7 365.3 254.3 411.2 259C457 263.7 503 266.3 548.8 267.2C594.7 268 640.3 267 686 266.3C731.7 265.7 777.3 265.3 823 264C868.7 262.7 914.3 260.3 937.2 259.2L960 258L960 301L937.2 301C914.3 301 868.7 301 823 301C777.3 301 731.7 301 686 301C640.3 301 594.7 301 548.8 301C503 301 457 301 411.2 301C365.3 301 319.7 301 274 301C228.3 301 182.7 301 137 301C91.3 301 45.7 301 22.8 301L0 301Z" fill="#1f38b7"></path><path d="M0 269L22.8 268C45.7 267 91.3 265 137 267.3C182.7 269.7 228.3 276.3 274 276.5C319.7 276.7 365.3 270.3 411.2 270C457 269.7 503 275.3 548.8 277.5C594.7 279.7 640.3 278.3 686 275.2C731.7 272 777.3 267 823 267.8C868.7 268.7 914.3 275.3 937.2 278.7L960 282L960 301L937.2 301C914.3 301 868.7 301 823 301C777.3 301 731.7 301 686 301C640.3 301 594.7 301 548.8 301C503 301 457 301 411.2 301C365.3 301 319.7 301 274 301C228.3 301 182.7 301 137 301C91.3 301 45.7 301 22.8 301L0 301Z" fill="#17309b"></path></svg>