<svg id="visual" viewBox="0 0 960 150" width="960" height="150" xmlns="http://www.w3.org/2000/svg" xmlns:xlink="http://www.w3.org/1999/xlink" version="1.1"><rect x="0" y="0" width="960" height="150" fill="#ffffff"></rect><path d="M0 85L22.8 82.3C45.7 79.7 91.3 74.3 137 74.5C182.7 74.7 228.3 80.3 274 80.2C319.7 80 365.3 74 411.2 72.5C457 71 503 74 548.8 73.7C594.7 73.3 640.3 69.7 686 67.8C731.7 66 777.3 66 823 65.7C868.7 65.3 914.3 64.7 937.2 64.3L960 64L960 151L937.2 151C914.3 151 868.7 151 823 151C777.3 151 731.7 151 686 151C640.3 151 594.7 151 548.8 151C503 151 457 151 411.2 151C365.3 151 319.7 151 274 151C228.3 151 182.7 151 137 151C91.3 151 45.7 151 22.8 151L0 151Z" fill="#ffffff"></path><path d="M0 92L22.8 90.3C45.7 88.7 91.3 85.3 137 84.3C182.7 83.3 228.3 84.7 274 85.3C319.7 86 365.3 86 411.2 88.7C457 91.3 503 96.7 548.8 98C594.7 99.3 640.3 96.7 686 95.2C731.7 93.7 777.3 93.3 823 93.8C868.7 94.3 914.3 95.7 937.2 96.3L960 97L960 151L937.2 151C914.3 151 868.7 151 823 151C777.3 151 731.7 151 686 151C640.3 151 594.7 151 548.8 151C503 151 457 151 411.2 151C365.3 151 319.7 151 274 151C228.3 151 182.7 151 137 151C91.3 151 45.7 151 22.8 151L0 151Z" fill="#d5ccf6"></path><path d="M0 104L22.8 104.8C45.7 105.7 91.3 107.3 137 105.3C182.7 103.3 228.3 97.7 274 96.7C319.7 95.7 365.3 99.3 411.2 103C457 106.7 503 110.3 548.8 109.8C594.7 109.3 640.3 104.7 686 103.8C731.7 103 777.3 106 823 105.3C868.7 104.7 914.3 100.3 937.2 98.2L960 96L960 151L937.2 151C914.3 151 868.7 151 823 151C777.3 151 731.7 151 686 151C640.3 151 594.7 151 548.8 151C503 151 457 151 411.2 151C365.3 151 319.7 151 274 151C228.3 151 182.7 151 137 151C91.3 151 45.7 151 22.8 151L0 151Z" fill="#a89beb"></path><path d="M0 126L22.8 126C45.7 126 91.3 126 137 123.3C182.7 120.7 228.3 115.3 274 112.7C319.7 110 365.3 110 411.2 112.3C457 114.7 503 119.3 548.8 120.3C594.7 121.3 640.3 118.7 686 117.2C731.7 115.7 777.3 115.3 823 114.5C868.7 113.7 914.3 112.3 937.2 111.7L960 111L960 151L937.2 151C914.3 151 868.7 151 823 151C777.3 151 731.7 151 686 151C640.3 151 594.7 151 548.8 151C503 151 457 151 411.2 151C365.3 151 319.7 151 274 151C228.3 151 182.7 151 137 151C91.3 151 45.7 151 22.8 151L0 151Z" fill="#766cdf"></path><path d="M0 139L22.8 138.5C45.7 138 91.3 137 137 134.7C182.7 132.3 228.3 128.7 274 126.8C319.7 125 365.3 125 411.2 127C457 129 503 133 548.8 132.8C594.7 132.7 640.3 128.3 686 126C731.7 123.7 777.3 123.3 823 125.5C868.7 127.7 914.3 132.3 937.2 134.7L960 137L960 151L937.2 151C914.3 151 868.7 151 823 151C777.3 151 731.7 151 686 151C640.3 151 594.7 151 548.8 151C503 151 457 151 411.2 151C365.3 151 319.7 151 274 151C228.3 151 182.7 151 137 151C91.3 151 45.7 151 22.8 151L0 151Z" fill="#2940d3"></path></svg>