<svg id="visual" viewBox="0 0 960 150" width="960" height="150" xmlns="http://www.w3.org/2000/svg" xmlns:xlink="http://www.w3.org/1999/xlink" version="1.1"><rect x="0" y="0" width="960" height="150" fill="#ffffff"></rect><path d="M0 73L22.8 71.3C45.7 69.7 91.3 66.3 137 67.8C182.7 69.3 228.3 75.7 274 76.8C319.7 78 365.3 74 411.2 73.2C457 72.3 503 74.7 548.8 73.8C594.7 73 640.3 69 686 65.7C731.7 62.3 777.3 59.7 823 59.8C868.7 60 914.3 63 937.2 64.5L960 66L960 0L937.2 0C914.3 0 868.7 0 823 0C777.3 0 731.7 0 686 0C640.3 0 594.7 0 548.8 0C503 0 457 0 411.2 0C365.3 0 319.7 0 274 0C228.3 0 182.7 0 137 0C91.3 0 45.7 0 22.8 0L0 0Z" fill="#ffffff"></path><path d="M0 68L22.8 64.8C45.7 61.7 91.3 55.3 137 54.8C182.7 54.3 228.3 59.7 274 61.8C319.7 64 365.3 63 411.2 62.3C457 61.7 503 61.3 548.8 60.7C594.7 60 640.3 59 686 59.5C731.7 60 777.3 62 823 60.3C868.7 58.7 914.3 53.3 937.2 50.7L960 48L960 0L937.2 0C914.3 0 868.7 0 823 0C777.3 0 731.7 0 686 0C640.3 0 594.7 0 548.8 0C503 0 457 0 411.2 0C365.3 0 319.7 0 274 0C228.3 0 182.7 0 137 0C91.3 0 45.7 0 22.8 0L0 0Z" fill="#d5ccf6"></path><path d="M0 37L22.8 36.8C45.7 36.7 91.3 36.3 137 38.5C182.7 40.7 228.3 45.3 274 47.3C319.7 49.3 365.3 48.7 411.2 49C457 49.3 503 50.7 548.8 51.3C594.7 52 640.3 52 686 51.3C731.7 50.7 777.3 49.3 823 47.8C868.7 46.3 914.3 44.7 937.2 43.8L960 43L960 0L937.2 0C914.3 0 868.7 0 823 0C777.3 0 731.7 0 686 0C640.3 0 594.7 0 548.8 0C503 0 457 0 411.2 0C365.3 0 319.7 0 274 0C228.3 0 182.7 0 137 0C91.3 0 45.7 0 22.8 0L0 0Z" fill="#a89beb"></path><path d="M0 40L22.8 39.5C45.7 39 91.3 38 137 36C182.7 34 228.3 31 274 30.8C319.7 30.7 365.3 33.3 411.2 32.3C457 31.3 503 26.7 548.8 27C594.7 27.3 640.3 32.7 686 34.5C731.7 36.3 777.3 34.7 823 31.8C868.7 29 914.3 25 937.2 23L960 21L960 0L937.2 0C914.3 0 868.7 0 823 0C777.3 0 731.7 0 686 0C640.3 0 594.7 0 548.8 0C503 0 457 0 411.2 0C365.3 0 319.7 0 274 0C228.3 0 182.7 0 137 0C91.3 0 45.7 0 22.8 0L0 0Z" fill="#766cdf"></path><path d="M0 9L22.8 9.8C45.7 10.7 91.3 12.3 137 14.8C182.7 17.3 228.3 20.7 274 20.5C319.7 20.3 365.3 16.7 411.2 14.7C457 12.7 503 12.3 548.8 12C594.7 11.7 640.3 11.3 686 11.7C731.7 12 777.3 13 823 14.2C868.7 15.3 914.3 16.7 937.2 17.3L960 18L960 0L937.2 0C914.3 0 868.7 0 823 0C777.3 0 731.7 0 686 0C640.3 0 594.7 0 548.8 0C503 0 457 0 411.2 0C365.3 0 319.7 0 274 0C228.3 0 182.7 0 137 0C91.3 0 45.7 0 22.8 0L0 0Z" fill="#2940d3"></path></svg>